<svg id="Accessibility--Streamline-Carbon" xmlns="http://www.w3.org/2000/svg" viewBox="0 0 100 100" height="100" width="100">
  <desc>
    Accessibility Streamline Icon: https://streamlinehq.com
  </desc>
  <defs></defs>
  <title>accessibility</title>
  <path d="m92.34375 81.59375 -9.53125 4.75L73.9375 65.625H46.875a6.25 6.25 0 0 1 -6.25 -6.25v-18.75a6.25 6.25 0 0 1 12.5 0v12.5h21.875v-6.25h-15.625v-6.25a12.5 12.5 0 0 0 -25 0v3.125a28.125 28.125 0 1 0 27.40625 34.375h-6.4375A21.875 21.875 0 1 1 34.375 50v9.375a12.5 12.5 0 0 0 12.5 12.5h22.9375l9.875 23.03125 15.46875 -7.75Z" fill="#000000" stroke-width="3.125"></path>
  <path d="M48.4375 25A10.9375 10.9375 0 1 1 59.375 14.0625 10.9375 10.9375 0 0 1 48.4375 25Zm0 -15.625A4.6875 4.6875 0 1 0 53.125 14.0625 4.6875 4.6875 0 0 0 48.4375 9.375Z" fill="#000000" stroke-width="3.125"></path>
  <path id="_Transparent_Rectangle_" d="M0 0h100v100H0Z" fill="none" stroke-width="3.125"></path>
</svg>